<svg width="196" height="40" viewBox="0 0 196 40" fill="none" xmlns="http://www.w3.org/2000/svg">
<path d="M57.528 15.2H53.628L52.884 17H50.892L54.636 8.6H56.556L60.312 17H58.272L57.528 15.2ZM56.916 13.724L55.584 10.508L54.252 13.724H56.916ZM64.8195 8.6C65.5635 8.6 66.2075 8.724 66.7515 8.972C67.3035 9.22 67.7275 9.572 68.0235 10.028C68.3195 10.484 68.4675 11.024 68.4675 11.648C68.4675 12.264 68.3195 12.804 68.0235 13.268C67.7275 13.724 67.3035 14.076 66.7515 14.324C66.2075 14.564 65.5635 14.684 64.8195 14.684H63.1275V17H61.1835V8.6H64.8195ZM64.7115 13.1C65.2955 13.1 65.7395 12.976 66.0435 12.728C66.3475 12.472 66.4995 12.112 66.4995 11.648C66.4995 11.176 66.3475 10.816 66.0435 10.568C65.7395 10.312 65.2955 10.184 64.7115 10.184H63.1275V13.1H64.7115ZM74.9655 15.2H71.0655L70.3215 17H68.3295L72.0735 8.6H73.9935L77.7495 17H75.7095L74.9655 15.2ZM74.3535 13.724L73.0215 10.508L71.6895 13.724H74.3535ZM83.973 17L82.353 14.66H82.257H80.565V17H78.621V8.6H82.257C83.001 8.6 83.645 8.724 84.189 8.972C84.741 9.22 85.165 9.572 85.461 10.028C85.757 10.484 85.905 11.024 85.905 11.648C85.905 12.272 85.753 12.812 85.449 13.268C85.153 13.716 84.729 14.06 84.177 14.3L86.061 17H83.973ZM83.937 11.648C83.937 11.176 83.785 10.816 83.481 10.568C83.177 10.312 82.733 10.184 82.149 10.184H80.565V13.112H82.149C82.733 13.112 83.177 12.984 83.481 12.728C83.785 12.472 83.937 12.112 83.937 11.648ZM89.068 10.184H86.38V8.6H93.7V10.184H91.012V17H89.068V10.184ZM102.39 17L102.378 11.96L99.906 16.112H99.03L96.57 12.068V17H94.746V8.6H96.354L99.498 13.82L102.594 8.6H104.19L104.214 17H102.39ZM112.711 15.44V17H106.207V8.6H112.555V10.16H108.139V11.984H112.039V13.496H108.139V15.44H112.711ZM121.962 8.6V17H120.366L116.178 11.9V17H114.258V8.6H115.866L120.042 13.7V8.6H121.962ZM125.689 10.184H123.001V8.6H130.321V10.184H127.633V17H125.689V10.184ZM138.834 17.144C137.962 17.144 137.174 16.956 136.47 16.58C135.774 16.204 135.226 15.688 134.826 15.032C134.434 14.368 134.238 13.624 134.238 12.8C134.238 11.976 134.434 11.236 134.826 10.58C135.226 9.916 135.774 9.396 136.47 9.02C137.174 8.644 137.962 8.456 138.834 8.456C139.706 8.456 140.49 8.644 141.186 9.02C141.882 9.396 142.43 9.916 142.83 10.58C143.23 11.236 143.43 11.976 143.43 12.8C143.43 13.624 143.23 14.368 142.83 15.032C142.43 15.688 141.882 16.204 141.186 16.58C140.49 16.956 139.706 17.144 138.834 17.144ZM138.834 15.488C139.33 15.488 139.778 15.376 140.178 15.152C140.578 14.92 140.89 14.6 141.114 14.192C141.346 13.784 141.462 13.32 141.462 12.8C141.462 12.28 141.346 11.816 141.114 11.408C140.89 11 140.578 10.684 140.178 10.46C139.778 10.228 139.33 10.112 138.834 10.112C138.338 10.112 137.89 10.228 137.49 10.46C137.09 10.684 136.774 11 136.542 11.408C136.318 11.816 136.206 12.28 136.206 12.8C136.206 13.32 136.318 13.784 136.542 14.192C136.774 14.6 137.09 14.92 137.49 15.152C137.89 15.376 138.338 15.488 138.834 15.488ZM157.305 8.6L154.557 17H152.469L150.621 11.312L148.713 17H146.637L143.877 8.6H145.893L147.789 14.504L149.769 8.6H151.569L153.489 14.552L155.445 8.6H157.305ZM166.095 8.6V17H164.499L160.311 11.9V17H158.391V8.6H159.999L164.175 13.7V8.6H166.095ZM174.586 15.44V17H168.082V8.6H174.43V10.16H170.014V11.984H173.914V13.496H170.014V15.44H174.586ZM181.485 17L179.865 14.66H179.769H178.077V17H176.133V8.6H179.769C180.513 8.6 181.157 8.724 181.701 8.972C182.253 9.22 182.677 9.572 182.973 10.028C183.269 10.484 183.417 11.024 183.417 11.648C183.417 12.272 183.265 12.812 182.961 13.268C182.665 13.716 182.241 14.06 181.689 14.3L183.573 17H181.485ZM181.449 11.648C181.449 11.176 181.297 10.816 180.993 10.568C180.689 10.312 180.245 10.184 179.661 10.184H178.077V13.112H179.661C180.245 13.112 180.689 12.984 180.993 12.728C181.297 12.472 181.449 12.112 181.449 11.648ZM187.717 17.144C187.053 17.144 186.409 17.056 185.785 16.88C185.169 16.696 184.673 16.46 184.297 16.172L184.957 14.708C185.317 14.972 185.745 15.184 186.241 15.344C186.737 15.504 187.233 15.584 187.729 15.584C188.281 15.584 188.689 15.504 188.953 15.344C189.217 15.176 189.349 14.956 189.349 14.684C189.349 14.484 189.269 14.32 189.109 14.192C188.957 14.056 188.757 13.948 188.509 13.868C188.269 13.788 187.941 13.7 187.525 13.604C186.885 13.452 186.361 13.3 185.953 13.148C185.545 12.996 185.193 12.752 184.897 12.416C184.609 12.08 184.465 11.632 184.465 11.072C184.465 10.584 184.597 10.144 184.861 9.752C185.125 9.352 185.521 9.036 186.049 8.804C186.585 8.572 187.237 8.456 188.005 8.456C188.541 8.456 189.065 8.52 189.577 8.648C190.089 8.776 190.537 8.96 190.921 9.2L190.321 10.676C189.545 10.236 188.769 10.016 187.993 10.016C187.449 10.016 187.045 10.104 186.781 10.28C186.525 10.456 186.397 10.688 186.397 10.976C186.397 11.264 186.545 11.48 186.841 11.624C187.145 11.76 187.605 11.896 188.221 12.032C188.861 12.184 189.385 12.336 189.793 12.488C190.201 12.64 190.549 12.88 190.837 13.208C191.133 13.536 191.281 13.98 191.281 14.54C191.281 15.02 191.145 15.46 190.873 15.86C190.609 16.252 190.209 16.564 189.673 16.796C189.137 17.028 188.485 17.144 187.717 17.144ZM57.528 30.2H53.628L52.884 32H50.892L54.636 23.6H56.556L60.312 32H58.272L57.528 30.2ZM56.916 28.724L55.584 25.508L54.252 28.724H56.916ZM63.9435 32.144C63.2795 32.144 62.6355 32.056 62.0115 31.88C61.3955 31.696 60.8995 31.46 60.5235 31.172L61.1835 29.708C61.5435 29.972 61.9715 30.184 62.4675 30.344C62.9635 30.504 63.4595 30.584 63.9555 30.584C64.5075 30.584 64.9155 30.504 65.1795 30.344C65.4435 30.176 65.5755 29.956 65.5755 29.684C65.5755 29.484 65.4955 29.32 65.3355 29.192C65.1835 29.056 64.9835 28.948 64.7355 28.868C64.4955 28.788 64.1675 28.7 63.7515 28.604C63.1115 28.452 62.5875 28.3 62.1795 28.148C61.7715 27.996 61.4195 27.752 61.1235 27.416C60.8355 27.08 60.6915 26.632 60.6915 26.072C60.6915 25.584 60.8235 25.144 61.0875 24.752C61.3515 24.352 61.7475 24.036 62.2755 23.804C62.8115 23.572 63.4635 23.456 64.2315 23.456C64.7675 23.456 65.2915 23.52 65.8035 23.648C66.3155 23.776 66.7635 23.96 67.1475 24.2L66.5475 25.676C65.7715 25.236 64.9955 25.016 64.2195 25.016C63.6755 25.016 63.2715 25.104 63.0075 25.28C62.7515 25.456 62.6235 25.688 62.6235 25.976C62.6235 26.264 62.7715 26.48 63.0675 26.624C63.3715 26.76 63.8315 26.896 64.4475 27.032C65.0875 27.184 65.6115 27.336 66.0195 27.488C66.4275 27.64 66.7755 27.88 67.0635 28.208C67.3595 28.536 67.5075 28.98 67.5075 29.54C67.5075 30.02 67.3715 30.46 67.0995 30.86C66.8355 31.252 66.4355 31.564 65.8995 31.796C65.3635 32.028 64.7115 32.144 63.9435 32.144ZM71.5958 32.144C70.9318 32.144 70.2878 32.056 69.6638 31.88C69.0478 31.696 68.5518 31.46 68.1758 31.172L68.8358 29.708C69.1958 29.972 69.6238 30.184 70.1198 30.344C70.6158 30.504 71.1118 30.584 71.6078 30.584C72.1598 30.584 72.5678 30.504 72.8318 30.344C73.0958 30.176 73.2278 29.956 73.2278 29.684C73.2278 29.484 73.1478 29.32 72.9878 29.192C72.8358 29.056 72.6358 28.948 72.3878 28.868C72.1478 28.788 71.8198 28.7 71.4038 28.604C70.7638 28.452 70.2398 28.3 69.8318 28.148C69.4238 27.996 69.0718 27.752 68.7758 27.416C68.4878 27.08 68.3438 26.632 68.3438 26.072C68.3438 25.584 68.4758 25.144 68.7398 24.752C69.0038 24.352 69.3998 24.036 69.9278 23.804C70.4638 23.572 71.1158 23.456 71.8838 23.456C72.4198 23.456 72.9438 23.52 73.4558 23.648C73.9678 23.776 74.4158 23.96 74.7998 24.2L74.1998 25.676C73.4238 25.236 72.6478 25.016 71.8718 25.016C71.3278 25.016 70.9238 25.104 70.6598 25.28C70.4038 25.456 70.2758 25.688 70.2758 25.976C70.2758 26.264 70.4238 26.48 70.7198 26.624C71.0238 26.76 71.4838 26.896 72.0998 27.032C72.7398 27.184 73.2638 27.336 73.6718 27.488C74.0798 27.64 74.4278 27.88 74.7158 28.208C75.0118 28.536 75.1598 28.98 75.1598 29.54C75.1598 30.02 75.0238 30.46 74.7518 30.86C74.4878 31.252 74.0878 31.564 73.5518 31.796C73.0158 32.028 72.3638 32.144 71.5958 32.144ZM80.5562 32.144C79.6842 32.144 78.8962 31.956 78.1922 31.58C77.4962 31.204 76.9482 30.688 76.5482 30.032C76.1562 29.368 75.9602 28.624 75.9602 27.8C75.9602 26.976 76.1562 26.236 76.5482 25.58C76.9482 24.916 77.4962 24.396 78.1922 24.02C78.8962 23.644 79.6842 23.456 80.5562 23.456C81.4282 23.456 82.2122 23.644 82.9082 24.02C83.6042 24.396 84.1522 24.916 84.5522 25.58C84.9522 26.236 85.1522 26.976 85.1522 27.8C85.1522 28.624 84.9522 29.368 84.5522 30.032C84.1522 30.688 83.6042 31.204 82.9082 31.58C82.2122 31.956 81.4282 32.144 80.5562 32.144ZM80.5562 30.488C81.0522 30.488 81.5002 30.376 81.9002 30.152C82.3002 29.92 82.6122 29.6 82.8362 29.192C83.0682 28.784 83.1842 28.32 83.1842 27.8C83.1842 27.28 83.0682 26.816 82.8362 26.408C82.6122 26 82.3002 25.684 81.9002 25.46C81.5002 25.228 81.0522 25.112 80.5562 25.112C80.0602 25.112 79.6122 25.228 79.2122 25.46C78.8122 25.684 78.4962 26 78.2642 26.408C78.0402 26.816 77.9282 27.28 77.9282 27.8C77.9282 28.32 78.0402 28.784 78.2642 29.192C78.4962 29.6 78.8122 29.92 79.2122 30.152C79.6122 30.376 80.0602 30.488 80.5562 30.488ZM90.6332 32.144C89.7772 32.144 89.0012 31.96 88.3052 31.592C87.6172 31.216 87.0732 30.7 86.6732 30.044C86.2812 29.38 86.0852 28.632 86.0852 27.8C86.0852 26.968 86.2812 26.224 86.6732 25.568C87.0732 24.904 87.6172 24.388 88.3052 24.02C89.0012 23.644 89.7812 23.456 90.6452 23.456C91.3732 23.456 92.0292 23.584 92.6132 23.84C93.2052 24.096 93.7012 24.464 94.1012 24.944L92.8532 26.096C92.2852 25.44 91.5812 25.112 90.7412 25.112C90.2212 25.112 89.7572 25.228 89.3492 25.46C88.9412 25.684 88.6212 26 88.3892 26.408C88.1652 26.816 88.0532 27.28 88.0532 27.8C88.0532 28.32 88.1652 28.784 88.3892 29.192C88.6212 29.6 88.9412 29.92 89.3492 30.152C89.7572 30.376 90.2212 30.488 90.7412 30.488C91.5812 30.488 92.2852 30.156 92.8532 29.492L94.1012 30.644C93.7012 31.132 93.2052 31.504 92.6132 31.76C92.0212 32.016 91.3612 32.144 90.6332 32.144ZM95.414 23.6H97.358V32H95.414V23.6ZM104.883 30.2H100.983L100.239 32H98.2475L101.991 23.6H103.911L107.667 32H105.627L104.883 30.2ZM104.271 28.724L102.939 25.508L101.607 28.724H104.271ZM109.857 25.184H107.169V23.6H114.489V25.184H111.801V32H109.857V25.184ZM115.535 23.6H117.479V32H115.535V23.6ZM123.541 32.144C122.669 32.144 121.881 31.956 121.177 31.58C120.481 31.204 119.933 30.688 119.533 30.032C119.141 29.368 118.945 28.624 118.945 27.8C118.945 26.976 119.141 26.236 119.533 25.58C119.933 24.916 120.481 24.396 121.177 24.02C121.881 23.644 122.669 23.456 123.541 23.456C124.413 23.456 125.197 23.644 125.893 24.02C126.589 24.396 127.137 24.916 127.537 25.58C127.937 26.236 128.137 26.976 128.137 27.8C128.137 28.624 127.937 29.368 127.537 30.032C127.137 30.688 126.589 31.204 125.893 31.58C125.197 31.956 124.413 32.144 123.541 32.144ZM123.541 30.488C124.037 30.488 124.485 30.376 124.885 30.152C125.285 29.92 125.597 29.6 125.821 29.192C126.053 28.784 126.169 28.32 126.169 27.8C126.169 27.28 126.053 26.816 125.821 26.408C125.597 26 125.285 25.684 124.885 25.46C124.485 25.228 124.037 25.112 123.541 25.112C123.045 25.112 122.597 25.228 122.197 25.46C121.797 25.684 121.481 26 121.249 26.408C121.025 26.816 120.913 27.28 120.913 27.8C120.913 28.32 121.025 28.784 121.249 29.192C121.481 29.6 121.797 29.92 122.197 30.152C122.597 30.376 123.045 30.488 123.541 30.488ZM137.302 23.6V32H135.706L131.518 26.9V32H129.598V23.6H131.206L135.382 28.7V23.6H137.302Z"/>
<path d="M20 11.6667V5H3.33331V35H36.6666V11.6667H20ZM9.99998 31.6667H6.66665V28.3333H9.99998V31.6667ZM9.99998 25H6.66665V21.6667H9.99998V25ZM9.99998 18.3333H6.66665V15H9.99998V18.3333ZM9.99998 11.6667H6.66665V8.33333H9.99998V11.6667ZM16.6666 31.6667H13.3333V28.3333H16.6666V31.6667ZM16.6666 25H13.3333V21.6667H16.6666V25ZM16.6666 18.3333H13.3333V15H16.6666V18.3333ZM16.6666 11.6667H13.3333V8.33333H16.6666V11.6667ZM33.3333 31.6667H20V28.3333H23.3333V25H20V21.6667H23.3333V18.3333H20V15H33.3333V31.6667ZM30 18.3333H26.6666V21.6667H30V18.3333ZM30 25H26.6666V28.3333H30V25Z"/>
</svg>
